<?xml version="1.0" encoding="UTF-8"?>
<!DOCTYPE svg PUBLIC "-//W3C//DTD SVG 1.1//EN" "http://www.w3.org/Graphics/SVG/1.1/DTD/svg11.dtd">
<svg version="1.2" width="76.46mm" height="76.46mm" viewBox="0 0 7646 7646" preserveAspectRatio="xMidYMid" fill-rule="evenodd" stroke-width="28.222" stroke-linejoin="round" xmlns="http://www.w3.org/2000/svg" xmlns:ooo="http://xml.openoffice.org/svg/export" xmlns:xlink="http://www.w3.org/1999/xlink" xmlns:presentation="http://sun.com/xmlns/staroffice/presentation" xmlns:smil="http://www.w3.org/2001/SMIL20/" xmlns:anim="urn:oasis:names:tc:opendocument:xmlns:animation:1.0" xml:space="preserve">
 <defs class="ClipPathGroup">
  <clipPath id="presentation_clip_path" clipPathUnits="userSpaceOnUse">
   <rect x="0" y="0" width="7646" height="7646"/>
  </clipPath>
  <clipPath id="presentation_clip_path_shrink" clipPathUnits="userSpaceOnUse">
   <rect x="7" y="7" width="7631" height="7631"/>
  </clipPath>
 </defs>
 <defs class="TextShapeIndex">
  <g ooo:slide="id1" ooo:id-list="id3 id4"/>
 </defs>
 <defs class="EmbeddedBulletChars">
  <g id="bullet-char-template-57356" transform="scale(0.00048828125,-0.00048828125)">
   <path d="M 580,1141 L 1163,571 580,0 -4,571 580,1141 Z"/>
  </g>
  <g id="bullet-char-template-57354" transform="scale(0.00048828125,-0.00048828125)">
   <path d="M 8,1128 L 1137,1128 1137,0 8,0 8,1128 Z"/>
  </g>
  <g id="bullet-char-template-10146" transform="scale(0.00048828125,-0.00048828125)">
   <path d="M 174,0 L 602,739 174,1481 1456,739 174,0 Z M 1358,739 L 309,1346 659,739 1358,739 Z"/>
  </g>
  <g id="bullet-char-template-10132" transform="scale(0.00048828125,-0.00048828125)">
   <path d="M 2015,739 L 1276,0 717,0 1260,543 174,543 174,936 1260,936 717,1481 1274,1481 2015,739 Z"/>
  </g>
  <g id="bullet-char-template-10007" transform="scale(0.00048828125,-0.00048828125)">
   <path d="M 0,-2 C -7,14 -16,27 -25,37 L 356,567 C 262,823 215,952 215,954 215,979 228,992 255,992 264,992 276,990 289,987 310,991 331,999 354,1012 L 381,999 492,748 772,1049 836,1024 860,1049 C 881,1039 901,1025 922,1006 886,937 835,863 770,784 769,783 710,716 594,584 L 774,223 C 774,196 753,168 711,139 L 727,119 C 717,90 699,76 672,76 641,76 570,178 457,381 L 164,-76 C 142,-110 111,-127 72,-127 30,-127 9,-110 8,-76 1,-67 -2,-52 -2,-32 -2,-23 -1,-13 0,-2 Z"/>
  </g>
  <g id="bullet-char-template-10004" transform="scale(0.00048828125,-0.00048828125)">
   <path d="M 285,-33 C 182,-33 111,30 74,156 52,228 41,333 41,471 41,549 55,616 82,672 116,743 169,778 240,778 293,778 328,747 346,684 L 369,508 C 377,444 397,411 428,410 L 1163,1116 C 1174,1127 1196,1133 1229,1133 1271,1133 1292,1118 1292,1087 L 1292,965 C 1292,929 1282,901 1262,881 L 442,47 C 390,-6 338,-33 285,-33 Z"/>
  </g>
  <g id="bullet-char-template-9679" transform="scale(0.00048828125,-0.00048828125)">
   <path d="M 813,0 C 632,0 489,54 383,161 276,268 223,411 223,592 223,773 276,916 383,1023 489,1130 632,1184 813,1184 992,1184 1136,1130 1245,1023 1353,916 1407,772 1407,592 1407,412 1353,268 1245,161 1136,54 992,0 813,0 Z"/>
  </g>
  <g id="bullet-char-template-8226" transform="scale(0.00048828125,-0.00048828125)">
   <path d="M 346,457 C 273,457 209,483 155,535 101,586 74,649 74,723 74,796 101,859 155,911 209,963 273,989 346,989 419,989 480,963 531,910 582,859 608,796 608,723 608,648 583,586 532,535 482,483 420,457 346,457 Z"/>
  </g>
  <g id="bullet-char-template-8211" transform="scale(0.00048828125,-0.00048828125)">
   <path d="M -4,459 L 1135,459 1135,606 -4,606 -4,459 Z"/>
  </g>
  <g id="bullet-char-template-61548" transform="scale(0.00048828125,-0.00048828125)">
   <path d="M 173,740 C 173,903 231,1043 346,1159 462,1274 601,1332 765,1332 928,1332 1067,1274 1183,1159 1299,1043 1357,903 1357,740 1357,577 1299,437 1183,322 1067,206 928,148 765,148 601,148 462,206 346,322 231,437 173,577 173,740 Z"/>
  </g>
 </defs>
 <g>
  <g id="id2" class="Master_Slide">
   <g id="bg-id2" class="Background"/>
   <g id="bo-id2" class="BackgroundObjects"/>
  </g>
 </g>
 <g class="SlideGroup">
  <g>
   <g id="container-id1">
    <g id="id1" class="Slide" clip-path="url(#presentation_clip_path)">
     <g class="Page">
      <g class="com.sun.star.drawing.CustomShape">
       <g id="id3">
        <rect class="BoundingBox" stroke="none" fill="none" x="0" y="0" width="7647" height="7647"/>
        <path fill="rgb(255,255,255)" stroke="none" d="M 3823,7646 L 0,7646 0,0 7646,0 7646,7646 3823,7646 Z"/>
       </g>
      </g>
      <g class="Graphic">
       <g id="id4">
        <rect class="BoundingBox" stroke="none" fill="none" x="0" y="0" width="7646" height="7646"/>
        <path fill="rgb(255,255,255)" stroke="none" d="M 489,3823 L 489,823 C 489,639 639,489 823,489 L 6822,489 C 7006,489 7156,639 7156,823 L 7156,6822 C 7156,7006 7006,7156 6822,7156 L 823,7156 C 639,7156 489,7006 489,6822 L 489,3823 Z"/>
        <path fill="rgb(255,255,255)" fill-opacity="0.102" stroke="rgb(255,255,255)" stroke-opacity="0.102" d="M 823,489 C 638,489 489,638 489,823 L 489,942 C 489,757 638,608 823,608 L 6822,608 C 7007,608 7156,757 7156,942 L 7156,823 C 7156,638 7007,489 6822,489 L 823,489 823,489 Z"/>
        <path fill="rgb(181,181,181)" fill-opacity="0.2" stroke="rgb(255,255,255)" stroke-opacity="0.2" d="M 489,6822 L 489,6941 C 489,7126 638,7275 823,7275 L 6822,7275 C 7007,7275 7156,7126 7156,6941 L 7156,6822 C 7156,7007 7007,7156 6822,7156 L 823,7156 C 638,7156 489,7007 489,6822 L 489,6822 Z M 1085,2989 L 1852,4894 2400,4894 3156,2989 2638,2989 2120,4245 1608,2989 1085,2989 1085,2989 Z"/>
        <path fill="rgb(0,0,0)" stroke="none" d="M 1852,4775 L 2400,4775 3156,2870 2638,2870 2120,4126 1608,2870 1085,2870 1852,4775 Z"/>
        <path fill="rgb(181,181,181)" fill-opacity="0.2" stroke="rgb(255,255,255)" stroke-opacity="0.2" d="M 3662,2989 C 3404,3627 3142,4262 2870,4894 L 3418,4894 3930,3644 4435,4894 4983,4894 5489,3608 6013,4894 6560,4894 C 6289,4262 6021,3627 5763,2989 L 5215,2989 4709,4245 4191,2989 3662,2989 3662,2989 Z"/>
        <path fill="rgb(0,0,0)" stroke="none" d="M 2870,4775 L 3418,4775 3930,3525 4435,4775 4983,4775 5489,3489 6013,4775 6560,4775 C 6289,4143 6021,3508 5763,2870 L 5215,2870 4709,4126 4191,2870 3662,2870 C 3404,3508 3142,4143 2870,4775 Z"/>
       </g>
      </g>
     </g>
    </g>
   </g>
  </g>
 </g>
</svg>