<?xml version="1.0" encoding="UTF-8"?>
<!DOCTYPE svg PUBLIC "-//W3C//DTD SVG 1.1//EN" "http://www.w3.org/Graphics/SVG/1.1/DTD/svg11.dtd">
<svg version="1.2" width="76.46mm" height="76.46mm" viewBox="0 0 7646 7646" preserveAspectRatio="xMidYMid" fill-rule="evenodd" stroke-width="28.222" stroke-linejoin="round" xmlns="http://www.w3.org/2000/svg" xmlns:ooo="http://xml.openoffice.org/svg/export" xmlns:xlink="http://www.w3.org/1999/xlink" xmlns:presentation="http://sun.com/xmlns/staroffice/presentation" xmlns:smil="http://www.w3.org/2001/SMIL20/" xmlns:anim="urn:oasis:names:tc:opendocument:xmlns:animation:1.0" xml:space="preserve">
 <defs class="ClipPathGroup">
  <clipPath id="presentation_clip_path" clipPathUnits="userSpaceOnUse">
   <rect x="0" y="0" width="7646" height="7646"/>
  </clipPath>
  <clipPath id="presentation_clip_path_shrink" clipPathUnits="userSpaceOnUse">
   <rect x="7" y="7" width="7631" height="7631"/>
  </clipPath>
 </defs>
 <defs class="TextShapeIndex">
  <g ooo:slide="id1" ooo:id-list="id3 id4"/>
 </defs>
 <defs class="EmbeddedBulletChars">
  <g id="bullet-char-template-57356" transform="scale(0.00048828125,-0.00048828125)">
   <path d="M 580,1141 L 1163,571 580,0 -4,571 580,1141 Z"/>
  </g>
  <g id="bullet-char-template-57354" transform="scale(0.00048828125,-0.00048828125)">
   <path d="M 8,1128 L 1137,1128 1137,0 8,0 8,1128 Z"/>
  </g>
  <g id="bullet-char-template-10146" transform="scale(0.00048828125,-0.00048828125)">
   <path d="M 174,0 L 602,739 174,1481 1456,739 174,0 Z M 1358,739 L 309,1346 659,739 1358,739 Z"/>
  </g>
  <g id="bullet-char-template-10132" transform="scale(0.00048828125,-0.00048828125)">
   <path d="M 2015,739 L 1276,0 717,0 1260,543 174,543 174,936 1260,936 717,1481 1274,1481 2015,739 Z"/>
  </g>
  <g id="bullet-char-template-10007" transform="scale(0.00048828125,-0.00048828125)">
   <path d="M 0,-2 C -7,14 -16,27 -25,37 L 356,567 C 262,823 215,952 215,954 215,979 228,992 255,992 264,992 276,990 289,987 310,991 331,999 354,1012 L 381,999 492,748 772,1049 836,1024 860,1049 C 881,1039 901,1025 922,1006 886,937 835,863 770,784 769,783 710,716 594,584 L 774,223 C 774,196 753,168 711,139 L 727,119 C 717,90 699,76 672,76 641,76 570,178 457,381 L 164,-76 C 142,-110 111,-127 72,-127 30,-127 9,-110 8,-76 1,-67 -2,-52 -2,-32 -2,-23 -1,-13 0,-2 Z"/>
  </g>
  <g id="bullet-char-template-10004" transform="scale(0.00048828125,-0.00048828125)">
   <path d="M 285,-33 C 182,-33 111,30 74,156 52,228 41,333 41,471 41,549 55,616 82,672 116,743 169,778 240,778 293,778 328,747 346,684 L 369,508 C 377,444 397,411 428,410 L 1163,1116 C 1174,1127 1196,1133 1229,1133 1271,1133 1292,1118 1292,1087 L 1292,965 C 1292,929 1282,901 1262,881 L 442,47 C 390,-6 338,-33 285,-33 Z"/>
  </g>
  <g id="bullet-char-template-9679" transform="scale(0.00048828125,-0.00048828125)">
   <path d="M 813,0 C 632,0 489,54 383,161 276,268 223,411 223,592 223,773 276,916 383,1023 489,1130 632,1184 813,1184 992,1184 1136,1130 1245,1023 1353,916 1407,772 1407,592 1407,412 1353,268 1245,161 1136,54 992,0 813,0 Z"/>
  </g>
  <g id="bullet-char-template-8226" transform="scale(0.00048828125,-0.00048828125)">
   <path d="M 346,457 C 273,457 209,483 155,535 101,586 74,649 74,723 74,796 101,859 155,911 209,963 273,989 346,989 419,989 480,963 531,910 582,859 608,796 608,723 608,648 583,586 532,535 482,483 420,457 346,457 Z"/>
  </g>
  <g id="bullet-char-template-8211" transform="scale(0.00048828125,-0.00048828125)">
   <path d="M -4,459 L 1135,459 1135,606 -4,606 -4,459 Z"/>
  </g>
  <g id="bullet-char-template-61548" transform="scale(0.00048828125,-0.00048828125)">
   <path d="M 173,740 C 173,903 231,1043 346,1159 462,1274 601,1332 765,1332 928,1332 1067,1274 1183,1159 1299,1043 1357,903 1357,740 1357,577 1299,437 1183,322 1067,206 928,148 765,148 601,148 462,206 346,322 231,437 173,577 173,740 Z"/>
  </g>
 </defs>
 <g>
  <g id="id2" class="Master_Slide">
   <g id="bg-id2" class="Background"/>
   <g id="bo-id2" class="BackgroundObjects"/>
  </g>
 </g>
 <g class="SlideGroup">
  <g>
   <g id="container-id1">
    <g id="id1" class="Slide" clip-path="url(#presentation_clip_path)">
     <g class="Page">
      <g class="com.sun.star.drawing.CustomShape">
       <g id="id3">
        <rect class="BoundingBox" stroke="none" fill="none" x="0" y="0" width="7647" height="7647"/>
        <path fill="rgb(255,255,255)" stroke="none" d="M 3823,7646 L 0,7646 0,0 7646,0 7646,7646 3823,7646 Z"/>
       </g>
      </g>
      <g class="Graphic">
       <g id="id4">
        <rect class="BoundingBox" stroke="none" fill="none" x="300" y="64" width="7082" height="7082"/>
        <path fill="rgb(0,0,0)" stroke="none" d="M 423,5063 L 649,5063 649,4169 1000,4948 C 1041,5043 1098,5076 1209,5076 1320,5076 1374,5043 1416,4948 L 1766,4169 1766,5063 1993,5063 1993,4170 C 1993,4083 1958,4041 1886,4019 1714,3966 1598,4012 1546,4128 L 1202,4898 869,4128 C 819,4012 701,3966 529,4019 457,4041 423,4083 423,4170 L 423,5063 423,5063 Z M 2407,4335 L 2407,4828 C 2405,4855 2416,4917 2540,4919 2603,4920 3029,4919 3033,4919 L 3033,4333 3260,4333 C 3261,4333 3259,5133 3259,5136 3261,5333 3015,5376 2901,5380 L 2186,5380 2186,5227 C 2187,5227 2901,5227 2902,5227 3048,5212 3031,5139 3031,5115 L 3031,5056 2550,5056 C 2326,5054 2183,4956 2181,4843 2181,4833 2186,4340 2181,4335 L 2407,4335 Z"/>
        <path fill="rgb(0,0,0)" stroke="none" d="M 4085,5063 C 4162,5063 4236,5047 4294,5020 4392,4975 4440,4914 4440,4834 L 4440,4668 C 4440,4603 4386,4542 4279,4501 4223,4479 4153,4468 4085,4468 L 3811,4468 C 3719,4468 3676,4440 3665,4379 3663,4372 3663,4366 3663,4359 L 3663,4256 C 3663,4250 3663,4244 3665,4237 3676,4191 3700,4178 3780,4170 L 3802,4169 4449,4169 4449,4018 3813,4018 C 3722,4018 3674,4024 3630,4037 3495,4079 3436,4146 3436,4262 L 3436,4394 C 3436,4496 3552,4583 3746,4603 3767,4604 3789,4606 3811,4606 L 4046,4606 C 4055,4606 4064,4606 4070,4607 4142,4613 4172,4626 4194,4652 4207,4665 4212,4678 4212,4693 L 4212,4825 C 4212,4841 4201,4861 4179,4879 4159,4896 4127,4908 4083,4911 L 4059,4912 3434,4912 3434,5063 4085,5063 Z M 5853,4800 C 5853,4956 5969,5043 6202,5060 6224,5062 6245,5063 6267,5063 L 6857,5063 6857,4912 6263,4912 C 6130,4912 6080,4879 6080,4799 L 6080,4018 5853,4018 5853,4800 5853,4800 Z M 4585,4270 C 4585,4133 4681,4050 4871,4024 4890,4021 4912,4020 4932,4020 L 5362,4020 C 5384,4020 5403,4021 5425,4024 5615,4050 5711,4133 5711,4270 L 5711,4808 C 5711,4919 5670,4979 5576,5017 L 5799,5219 5536,5219 5356,5056 5174,5067 4932,5067 C 4890,5067 4847,5061 4799,5048 4655,5009 4585,4933 4585,4808 L 4585,4270 Z M 4829,4795 C 4829,4802 4831,4810 4834,4818 4847,4881 4906,4916 4995,4916 L 5201,4916 5012,4745 5275,4745 5440,4894 C 5470,4878 5490,4853 5497,4821 5499,4814 5499,4807 5499,4800 L 5499,4283 C 5499,4277 5499,4270 5497,4263 5484,4204 5425,4171 5338,4171 L 4995,4171 C 4895,4171 4829,4215 4829,4283 L 4829,4795 4829,4795 Z"/>
        <path fill="rgb(0,0,0)" stroke="none" d="M 6720,3815 C 6694,3826 6653,3826 6649,3858 6663,3873 6665,3895 6676,3914 6698,3949 6735,3996 6768,4021 6803,4048 6840,4076 6878,4100 6946,4141 7023,4165 7088,4207 7127,4231 7165,4262 7203,4290 7222,4303 7234,4325 7258,4333 L 7258,4329 C 7246,4313 7242,4291 7231,4274 L 7179,4222 C 7129,4156 7065,4097 6997,4048 6943,4009 6822,3957 6799,3894 L 6795,3890 C 6834,3886 6879,3872 6914,3862 6973,3846 7027,3850 7088,3834 L 7171,3811 7171,3795 C 7140,3763 7118,3721 7084,3692 6996,3617 6899,3541 6799,3478 6744,3443 6676,3421 6617,3391 6597,3381 6563,3376 6550,3359 6519,3320 6502,3271 6478,3225 6429,3129 6380,3025 6336,2924 6306,2855 6286,2788 6249,2726 6069,2430 5876,2252 5576,2077 5512,2039 5435,2025 5354,2006 L 5224,1998 C 5197,1987 5169,1954 5144,1938 5045,1875 4790,1739 4717,1918 4670,2032 4786,2142 4828,2200 4857,2240 4894,2285 4915,2330 4928,2360 4931,2390 4942,2421 4971,2499 4996,2583 5033,2655 5052,2691 5073,2729 5097,2762 5111,2782 5136,2790 5140,2821 5116,2855 5114,2908 5101,2952 5039,3147 5062,3389 5152,3534 5180,3578 5245,3673 5334,3637 5413,3605 5395,3506 5418,3419 5423,3399 5419,3385 5429,3371 L 5429,3375 5501,3518 C 5553,3603 5647,3691 5726,3751 5767,3782 5800,3836 5853,3854 L 5853,3850 5849,3850 C 5839,3834 5823,3828 5809,3815 5778,3784 5744,3747 5718,3712 5646,3614 5583,3507 5524,3395 5497,3342 5473,3283 5449,3229 5440,3208 5440,3176 5422,3166 5396,3205 5358,3237 5338,3284 5307,3359 5303,3451 5291,3546 L 5283,3549 C 5228,3536 5208,3479 5188,3431 5136,3308 5126,3109 5172,2968 5184,2931 5237,2815 5216,2781 5205,2748 5171,2728 5152,2702 5129,2670 5105,2628 5089,2591 5046,2495 5027,2388 4982,2291 4961,2244 4925,2197 4895,2156 4862,2110 4825,2077 4800,2021 4791,2002 4779,1970 4792,1950 4796,1936 4802,1931 4816,1926 4839,1909 4903,1932 4927,1942 4990,1968 5043,1994 5097,2029 5123,2046 5149,2079 5180,2089 L 5216,2089 C 5271,2101 5334,2092 5386,2108 5478,2136 5560,2180 5635,2227 5864,2371 6050,2576 6178,2821 6198,2860 6207,2898 6225,2940 6262,3024 6308,3111 6344,3193 6380,3275 6415,3358 6467,3427 6494,3463 6598,3482 6645,3502 6678,3516 6732,3530 6764,3549 6823,3585 6882,3629 6938,3668 6966,3688 7052,3731 7056,3767 6917,3763 6811,3776 6720,3815 Z M 5216,2267 L 5216,2271 5220,2271 C 5233,2299 5258,2318 5275,2342 L 5315,2425 5319,2421 C 5343,2404 5354,2376 5354,2334 5344,2324 5343,2311 5334,2299 5323,2282 5301,2273 5287,2259 5258,2258 5237,2262 5216,2267 Z"/>
       </g>
      </g>
     </g>
    </g>
   </g>
  </g>
 </g>
</svg>