<svg xmlns="http://www.w3.org/2000/svg" xmlns:svgjs="http://svgjs.com/svgjs" xmlns:xlink="http://www.w3.org/1999/xlink" width="288" height="288"><svg xmlns="http://www.w3.org/2000/svg" width="288" height="288" data-name="Layer 1" viewBox="0 0 48 48"><path fill="#fff" d="M24 21A10 10 0 1134 11 10 10 0 0124 21zM24 5a6 6 0 106 6A6 6 0 0024 5zM42 47H6a2 2 0 01-2-2V39A16 16 0 0120 23h8A16 16 0 0144 39v6A2 2 0 0142 47zM8 43H40V39A12 12 0 0028 27H20A12 12 0 008 39z" class="color000 svgShape"/></svg></svg>