<svg xmlns="http://www.w3.org/2000/svg" xmlns:svgjs="http://svgjs.com/svgjs" xmlns:xlink="http://www.w3.org/1999/xlink" width="288" height="288"><svg xmlns="http://www.w3.org/2000/svg" width="288" height="288" enable-background="new 0 0 430.207 430.207" viewBox="0 0 430.207 430.207"><path fill="#fff" d="M270.601,4.924L7.385,268.14c-3.117,3.117-4.817,7.367-5.1,11.617L0.301,413.773c0,4.533,1.7,8.783,5.1,11.9
			c3.117,3.117,7.65,4.533,11.9,4.533h0.283l130.05-1.133c4.533,0,8.783-1.417,11.9-4.533l265.483-265.483
			c6.517-6.517,6.517-17.283,0-24.083L294.685,4.64C287.885-1.593,277.118-1.593,270.601,4.924z M140.268,395.64l-105.683,1.417
			l1.7-109.933l175.667-175.667l106.25,106.25L140.268,395.64z M342.001,193.907L236.035,87.657l46.75-46.75l105.967,106.25
			L342.001,193.907z" class="color000 svgShape"/></svg></svg>