<?xml version="1.0" encoding="UTF-8"?>
<!DOCTYPE svg PUBLIC "-//W3C//DTD SVG 1.1//EN" "http://www.w3.org/Graphics/SVG/1.1/DTD/svg11.dtd">
<svg version="1.2" width="76.46mm" height="76.46mm" viewBox="0 0 7646 7646" preserveAspectRatio="xMidYMid" fill-rule="evenodd" stroke-width="28.222" stroke-linejoin="round" xmlns="http://www.w3.org/2000/svg" xmlns:ooo="http://xml.openoffice.org/svg/export" xmlns:xlink="http://www.w3.org/1999/xlink" xmlns:presentation="http://sun.com/xmlns/staroffice/presentation" xmlns:smil="http://www.w3.org/2001/SMIL20/" xmlns:anim="urn:oasis:names:tc:opendocument:xmlns:animation:1.0" xml:space="preserve">
 <defs class="ClipPathGroup">
  <clipPath id="presentation_clip_path" clipPathUnits="userSpaceOnUse">
   <rect x="0" y="0" width="7646" height="7646"/>
  </clipPath>
  <clipPath id="presentation_clip_path_shrink" clipPathUnits="userSpaceOnUse">
   <rect x="7" y="7" width="7631" height="7631"/>
  </clipPath>
 </defs>
 <defs class="TextShapeIndex">
  <g ooo:slide="id1" ooo:id-list="id3 id4"/>
 </defs>
 <defs class="EmbeddedBulletChars">
  <g id="bullet-char-template-57356" transform="scale(0.00048828125,-0.00048828125)">
   <path d="M 580,1141 L 1163,571 580,0 -4,571 580,1141 Z"/>
  </g>
  <g id="bullet-char-template-57354" transform="scale(0.00048828125,-0.00048828125)">
   <path d="M 8,1128 L 1137,1128 1137,0 8,0 8,1128 Z"/>
  </g>
  <g id="bullet-char-template-10146" transform="scale(0.00048828125,-0.00048828125)">
   <path d="M 174,0 L 602,739 174,1481 1456,739 174,0 Z M 1358,739 L 309,1346 659,739 1358,739 Z"/>
  </g>
  <g id="bullet-char-template-10132" transform="scale(0.00048828125,-0.00048828125)">
   <path d="M 2015,739 L 1276,0 717,0 1260,543 174,543 174,936 1260,936 717,1481 1274,1481 2015,739 Z"/>
  </g>
  <g id="bullet-char-template-10007" transform="scale(0.00048828125,-0.00048828125)">
   <path d="M 0,-2 C -7,14 -16,27 -25,37 L 356,567 C 262,823 215,952 215,954 215,979 228,992 255,992 264,992 276,990 289,987 310,991 331,999 354,1012 L 381,999 492,748 772,1049 836,1024 860,1049 C 881,1039 901,1025 922,1006 886,937 835,863 770,784 769,783 710,716 594,584 L 774,223 C 774,196 753,168 711,139 L 727,119 C 717,90 699,76 672,76 641,76 570,178 457,381 L 164,-76 C 142,-110 111,-127 72,-127 30,-127 9,-110 8,-76 1,-67 -2,-52 -2,-32 -2,-23 -1,-13 0,-2 Z"/>
  </g>
  <g id="bullet-char-template-10004" transform="scale(0.00048828125,-0.00048828125)">
   <path d="M 285,-33 C 182,-33 111,30 74,156 52,228 41,333 41,471 41,549 55,616 82,672 116,743 169,778 240,778 293,778 328,747 346,684 L 369,508 C 377,444 397,411 428,410 L 1163,1116 C 1174,1127 1196,1133 1229,1133 1271,1133 1292,1118 1292,1087 L 1292,965 C 1292,929 1282,901 1262,881 L 442,47 C 390,-6 338,-33 285,-33 Z"/>
  </g>
  <g id="bullet-char-template-9679" transform="scale(0.00048828125,-0.00048828125)">
   <path d="M 813,0 C 632,0 489,54 383,161 276,268 223,411 223,592 223,773 276,916 383,1023 489,1130 632,1184 813,1184 992,1184 1136,1130 1245,1023 1353,916 1407,772 1407,592 1407,412 1353,268 1245,161 1136,54 992,0 813,0 Z"/>
  </g>
  <g id="bullet-char-template-8226" transform="scale(0.00048828125,-0.00048828125)">
   <path d="M 346,457 C 273,457 209,483 155,535 101,586 74,649 74,723 74,796 101,859 155,911 209,963 273,989 346,989 419,989 480,963 531,910 582,859 608,796 608,723 608,648 583,586 532,535 482,483 420,457 346,457 Z"/>
  </g>
  <g id="bullet-char-template-8211" transform="scale(0.00048828125,-0.00048828125)">
   <path d="M -4,459 L 1135,459 1135,606 -4,606 -4,459 Z"/>
  </g>
  <g id="bullet-char-template-61548" transform="scale(0.00048828125,-0.00048828125)">
   <path d="M 173,740 C 173,903 231,1043 346,1159 462,1274 601,1332 765,1332 928,1332 1067,1274 1183,1159 1299,1043 1357,903 1357,740 1357,577 1299,437 1183,322 1067,206 928,148 765,148 601,148 462,206 346,322 231,437 173,577 173,740 Z"/>
  </g>
 </defs>
 <g>
  <g id="id2" class="Master_Slide">
   <g id="bg-id2" class="Background"/>
   <g id="bo-id2" class="BackgroundObjects"/>
  </g>
 </g>
 <g class="SlideGroup">
  <g>
   <g id="container-id1">
    <g id="id1" class="Slide" clip-path="url(#presentation_clip_path)">
     <g class="Page">
      <g class="com.sun.star.drawing.CustomShape">
       <g id="id3">
        <rect class="BoundingBox" stroke="none" fill="none" x="0" y="0" width="7647" height="7647"/>
        <path fill="rgb(255,255,255)" stroke="none" d="M 3823,7646 L 0,7646 0,0 7646,0 7646,7646 3823,7646 Z"/>
       </g>
      </g>
      <g class="Graphic">
       <g id="id4">
        <rect class="BoundingBox" stroke="none" fill="none" x="251" y="314" width="7082" height="7082"/>
        <path fill="rgb(0,0,0)" stroke="none" d="M 2886,759 C 2764,761 2650,773 2547,792 2134,868 1874,1055 1874,1055 1847,1075 1827,1104 1820,1137 L 1363,3081 C 1351,3129 1366,3179 1401,3213 1436,3248 1486,3262 1534,3250 2017,3130 2743,3076 3494,3496 3532,3517 3578,3519 3618,3502 3658,3485 3688,3450 3699,3407 L 4235,1307 C 4250,1248 4225,1186 4174,1153 3697,849 3253,755 2886,759 L 2886,759 Z M 2890,1040 C 2995,1039 3108,1046 3227,1068 3441,1106 3680,1197 3934,1345 L 3466,3180 C 2800,2861 2167,2852 1686,2938 L 2080,1261 C 2128,1229 2293,1126 2599,1069 2687,1053 2785,1042 2890,1040 L 2890,1040 Z M 4588,1483 C 4524,1484 4470,1528 4454,1589 L 3922,3677 C 3907,3733 3929,3792 3976,3826 4915,4501 5878,4263 6278,4110 6322,4093 6355,4056 6365,4011 L 6893,1770 C 6906,1712 6882,1653 6833,1620 6784,1588 6720,1589 6672,1623 6672,1623 6465,1775 6107,1840 5748,1906 5251,1885 4668,1506 4644,1490 4616,1482 4588,1483 L 4588,1483 Z M 4684,1831 C 5257,2150 5778,2187 6157,2118 6323,2088 6441,2037 6551,1990 L 6109,3866 C 5742,3996 4993,4143 4223,3638 L 4684,1831 Z M 2199,3448 C 1812,3451 1491,3545 1300,3617 1256,3634 1224,3671 1213,3717 L 690,5939 C 688,5950 687,5961 687,5971 L 687,5978 C 687,6031 716,6079 764,6103 811,6128 868,6123 910,6092 910,6092 1105,5951 1445,5883 1785,5815 2257,5823 2813,6150 2851,6173 2898,6176 2939,6159 2980,6142 3011,6107 3022,6064 L 3553,3979 C 3568,3920 3544,3858 3493,3825 3039,3534 2586,3446 2199,3448 L 2199,3448 Z M 2194,3729 C 2510,3726 2878,3808 3251,4023 L 2790,5829 C 2243,5556 1749,5534 1390,5606 1238,5636 1133,5683 1030,5727 L 1469,3861 C 1641,3800 1887,3732 2194,3729 L 2194,3729 Z M 3904,4148 C 3842,4151 3790,4194 3774,4254 L 3242,6341 C 3227,6398 3250,6458 3298,6491 3958,6953 4565,7004 5000,6931 5434,6858 5709,6660 5709,6660 5744,6635 5765,6595 5767,6552 L 5767,6552 6216,4647 C 6227,4599 6213,4549 6178,4514 6143,4479 6092,4466 6044,4477 5849,4526 5614,4563 5355,4563 4942,4563 4468,4467 3985,4169 3961,4154 3933,4147 3904,4148 L 3904,4148 Z M 4007,4483 C 4479,4734 4947,4845 5355,4845 5559,4845 5725,4810 5895,4778 L 5500,6456 C 5449,6489 5274,6599 4953,6653 4597,6712 4109,6674 3542,6307 L 4007,4483 Z"/>
       </g>
      </g>
     </g>
    </g>
   </g>
  </g>
 </g>
</svg>